<svg width="65" height="63" viewBox="0 0 65 63" fill="none" xmlns="http://www.w3.org/2000/svg">
<path d="M25.8333 24C24.1696 24 22.5742 23.3679 21.3978 22.2426C20.2214 21.1174 19.5605 19.5913 19.5605 18C19.5605 16.4087 20.2214 14.8826 21.3978 13.7574C22.5742 12.6321 24.1696 12 25.8333 12C26.2262 10.2496 27.3756 8.71131 29.0287 7.72362C29.8473 7.23456 30.7648 6.8954 31.729 6.72548C32.6931 6.55557 33.6851 6.55824 34.6481 6.73333C35.6111 6.90843 36.5264 7.25252 37.3417 7.74597C38.1569 8.23942 38.8562 8.87256 39.3996 9.60924C39.943 10.3459 40.3199 11.1717 40.5087 12.0395C40.6975 12.9072 40.6945 13.7999 40.4999 14.6667H41.8333C43.071 14.6667 44.2579 15.1583 45.1331 16.0335C46.0083 16.9087 46.4999 18.0957 46.4999 19.3333C46.4999 20.571 46.0083 21.758 45.1331 22.6332C44.2579 23.5083 43.071 24 41.8333 24H40.4999" stroke="#2563EB" stroke-width="2" stroke-linecap="round" stroke-linejoin="round"/>
<path d="M28.5 20L32.5 16L36.5 20" stroke="#2563EB" stroke-width="2" stroke-linecap="round" stroke-linejoin="round"/>
<path d="M32.5 16V28" stroke="#2563EB" stroke-width="2" stroke-linecap="round" stroke-linejoin="round"/>
<path d="M8.07386 49.2727H6.23722V54.7614H6.16051L2.39347 49.2727H0.774148V58H2.61932V52.5071H2.68324L6.48011 58H8.07386V49.2727ZM12.5472 58.1278C14.1665 58.1278 15.2575 57.3395 15.5131 56.125L13.8342 56.0142C13.6509 56.5128 13.1822 56.7727 12.5771 56.7727C11.6694 56.7727 11.0941 56.1719 11.0941 55.196V55.1918H15.5515V54.6932C15.5515 52.4688 14.2049 51.3693 12.4748 51.3693C10.5487 51.3693 9.30007 52.7372 9.30007 54.7571C9.30007 56.8324 10.5316 58.1278 12.5472 58.1278ZM11.0941 54.0668C11.1325 53.321 11.6992 52.7244 12.5046 52.7244C13.293 52.7244 13.8384 53.2869 13.8427 54.0668H11.0941ZM17.9805 58H19.8981L21.0231 53.8835H21.104L22.229 58H24.1509L25.9279 51.4545H24.0955L23.0984 55.8267H23.043L21.9691 51.4545H20.1665L19.1097 55.8523H19.0501L18.0359 51.4545H16.1992L17.9805 58ZM31.5529 49.2727H29.7077V58H31.5529V49.2727ZM33.0369 58H34.8523V54.071C34.8523 53.3466 35.3125 52.8651 35.9176 52.8651C36.5142 52.8651 36.9148 53.2741 36.9148 53.9176V58H38.6747V54.0028C38.6747 53.3253 39.0625 52.8651 39.723 52.8651C40.3026 52.8651 40.7372 53.2273 40.7372 53.956V58H42.5483V53.598C42.5483 52.179 41.7045 51.3693 40.4858 51.3693C39.527 51.3693 38.7812 51.8594 38.5128 52.6094H38.4446C38.2358 51.8509 37.5668 51.3693 36.6676 51.3693C35.7855 51.3693 35.1165 51.8381 34.8438 52.6094H34.767V51.4545H33.0369V58ZM45.8487 58.1236C46.8161 58.1236 47.4425 57.7017 47.7621 57.0923H47.8132V58H49.5348V53.5852C49.5348 52.0256 48.2138 51.3693 46.7564 51.3693C45.1882 51.3693 44.157 52.1193 43.9055 53.3125L45.5845 53.4489C45.7081 53.0142 46.0959 52.6946 46.7479 52.6946C47.3658 52.6946 47.7195 53.0057 47.7195 53.5426V53.5682C47.7195 53.9901 47.272 54.0455 46.1342 54.1562C44.8388 54.2756 43.6754 54.7102 43.6754 56.1719C43.6754 57.4673 44.6001 58.1236 45.8487 58.1236ZM46.3686 56.8707C45.8104 56.8707 45.4098 56.6108 45.4098 56.1122C45.4098 55.6009 45.8317 55.3494 46.4709 55.2599C46.8672 55.2045 47.5149 55.1108 47.7322 54.9659V55.6605C47.7322 56.3466 47.1655 56.8707 46.3686 56.8707ZM53.892 60.5909C55.7628 60.5909 57.0923 59.7386 57.0923 58.0639V51.4545H55.2898V52.554H55.2216C54.9787 52.0213 54.446 51.3693 53.3509 51.3693C51.9148 51.3693 50.7003 52.4858 50.7003 54.7145C50.7003 56.892 51.8807 57.9062 53.3551 57.9062C54.3991 57.9062 54.983 57.3821 55.2216 56.8409H55.2983V58.0384C55.2983 58.9375 54.723 59.2869 53.9347 59.2869C53.1335 59.2869 52.7287 58.9375 52.5795 58.5412L50.9006 58.767C51.1179 59.7983 52.1278 60.5909 53.892 60.5909ZM53.9304 56.5426C53.0398 56.5426 52.554 55.8352 52.554 54.706C52.554 53.5938 53.0312 52.8139 53.9304 52.8139C54.8125 52.8139 55.3068 53.5597 55.3068 54.706C55.3068 55.8608 54.804 56.5426 53.9304 56.5426ZM61.5199 58.1278C63.1392 58.1278 64.2301 57.3395 64.4858 56.125L62.8068 56.0142C62.6236 56.5128 62.1548 56.7727 61.5497 56.7727C60.642 56.7727 60.0668 56.1719 60.0668 55.196V55.1918H64.5241V54.6932C64.5241 52.4688 63.1776 51.3693 61.4474 51.3693C59.5213 51.3693 58.2727 52.7372 58.2727 54.7571C58.2727 56.8324 59.5043 58.1278 61.5199 58.1278ZM60.0668 54.0668C60.1051 53.321 60.6719 52.7244 61.4773 52.7244C62.2656 52.7244 62.8111 53.2869 62.8153 54.0668H60.0668Z" fill="#2563EB"/>
</svg>
