<svg width="24" height="24" viewBox="0 0 24 24" fill="none" xmlns="http://www.w3.org/2000/svg">
<g clip-path="url(#clip0_2_1022)">
<path d="M12.1748 11.1852C13.9748 11.5713 15.7469 10.425 16.133 8.625C16.519 6.82499 15.3728 5.05283 13.5728 4.66677C11.7728 4.28071 10.0006 5.42695 9.61456 7.22696C9.2285 9.02698 10.3747 10.7991 12.1748 11.1852Z" stroke="white" stroke-width="1.5" stroke-linecap="round" stroke-linejoin="round"/>
<path d="M5.94578 18.3721C7.7458 18.7581 9.51796 17.6119 9.90402 15.8119C10.2901 14.0119 9.14384 12.2397 7.34382 11.8537C5.54381 11.4676 3.77165 12.6138 3.38559 14.4138C2.99953 16.2139 4.14577 17.986 5.94578 18.3721Z" stroke="white" stroke-width="1.5" stroke-linecap="round" stroke-linejoin="round"/>
<path d="M14.9086 20.2944C16.7086 20.6804 18.4808 19.5342 18.8669 17.7342C19.2529 15.9342 18.1067 14.162 16.3067 13.776C14.5067 13.3899 12.7345 14.5361 12.3484 16.3362C11.9624 18.1362 13.1086 19.9083 14.9086 20.2944Z" stroke="white" stroke-width="1.5" stroke-linecap="round" stroke-linejoin="round"/>
</g>
<defs>
<clipPath id="clip0_2_1022">
<rect width="20" height="20" fill="white" transform="translate(4.31942 0.125294) rotate(12.1051)"/>
</clipPath>
</defs>
</svg>
